<?xml version="1.0" encoding="utf-8"?>
<!-- Generator: Adobe Illustrator 16.0.0, SVG Export Plug-In . SVG Version: 6.00 Build 0)  -->
<!DOCTYPE svg PUBLIC "-//W3C//DTD SVG 1.1//EN" "http://www.w3.org/Graphics/SVG/1.1/DTD/svg11.dtd">
<svg version="1.1" id="圖層_1" xmlns="http://www.w3.org/2000/svg" xmlns:xlink="http://www.w3.org/1999/xlink" x="0px" y="0px"
	 width="43.25px" height="73.25px" viewBox="0 0 43.25 73.25" enable-background="new 0 0 43.25 73.25" xml:space="preserve">
<path fill="none" stroke="#FFFFFF" stroke-width="2.8346" stroke-linecap="round" stroke-linejoin="round" stroke-miterlimit="10" d="
	M42,50.75c0,11.046-8.954,20-20,20l0,0c-11.046,0-20-8.954-20-20v-29c0-11.046,8.954-20,20-20l0,0c11.046,0,20,8.954,20,20V50.75z"
	/>
<path fill="none" stroke="#FFFFFF" stroke-width="2.8346" stroke-miterlimit="10" d="M25.75,27c0,2.071-1.679,3.75-3.75,3.75l0,0
	c-2.071,0-3.75-1.679-3.75-3.75v-8.5c0-2.071,1.679-3.75,3.75-3.75l0,0c2.071,0,3.75,1.679,3.75,3.75V27z"/>
<line fill="none" stroke="#FFFFFF" stroke-width="2.8346" stroke-linecap="round" stroke-miterlimit="10" x1="22" y1="2.75" x2="22" y2="14.5"/>
</svg>
